<?xml version="1.0" encoding="utf-8"?>
<!-- Generator: Adobe Illustrator 26.0.3, SVG Export Plug-In . SVG Version: 6.00 Build 0)  -->
<svg version="1.1" id="Layer_1" xmlns="http://www.w3.org/2000/svg" xmlns:xlink="http://www.w3.org/1999/xlink" x="0px" y="0px"
	 viewBox="0 0 24 24" style="enable-background:new 0 0 24 24;" xml:space="preserve">
<style type="text/css">
	.st0{fill:#FFFFFF;stroke:#000000;stroke-miterlimit:10;}
</style>
<path d="M17.9,3.5L22,6.9v5.1l-10,8.3L2,12.1V6.9l4.1-3.4L12,7.4C12,7.4,17.9,3.5,17.9,3.5z M18,1l-6,4L6,1L0,6v7l12,10l12-10V6
	L18,1z"/>
<rect x="11.6" y="6" class="st0" width="0.7" height="15.5"/>
<path d="M4.5,6.6"/>
<polygon points="7.6,10.7 8.2,9.9 3.1,6.6 2.3,7.3 "/>
<polygon points="3.7,6.1 9.7,10 10.2,9.2 4.5,5.5 "/>
<polygon points="9.8,8 10.4,7.1 6,4.3 5.2,4.9 "/>
</svg>
