<?xml version="1.0" encoding="utf-8"?>
<!-- Generator: Adobe Illustrator 26.0.3, SVG Export Plug-In . SVG Version: 6.00 Build 0)  -->
<svg version="1.1" id="Layer_1" xmlns="http://www.w3.org/2000/svg" xmlns:xlink="http://www.w3.org/1999/xlink" x="0px" y="0px"
	 viewBox="0 0 1100 400" style="enable-background:new 0 0 1100 400;" xml:space="preserve">
<style type="text/css">
	.st0{font-family:'Circular-Book';}
	.st1{font-size:300px;}
</style>
<g>
	<g>
		<path d="M312.2,20.3l-100,66.7l-100-66.7l-100,83.3v116.7l200,166.7l200-166.7V103.6L312.2,20.3z M45.5,119.2l68.9-57.4l85.6,57.1
			v214.5L45.5,204.7V119.2z M378.8,204.7L224.4,333.4V118.9c18.7-12.5,85.6-57.1,85.6-57.1l68.9,57.4V204.7z"/>
	</g>
	<g>
		<rect x="134.4" y="59.3" transform="matrix(0.5462 -0.8377 0.8377 0.5462 -22.9383 166.8684)" width="16.2" height="90.7"/>
	</g>
	<g>
		<rect x="125.2" y="80.4" transform="matrix(0.5462 -0.8377 0.8377 0.5462 -51.8612 172.5786)" width="16.2" height="107.5"/>
	</g>
	<g>
		<rect x="100" y="109.9" transform="matrix(0.5462 -0.8377 0.8377 0.5462 -78.7132 159.7712)" width="16.2" height="85.3"/>
	</g>
</g>
<text transform="matrix(1 0 0 1 504.2034 258.317)" class="st0 st1">gray</text>
</svg>
