<?xml version="1.0" standalone="no"?>
<!DOCTYPE svg PUBLIC "-//W3C//DTD SVG 20010904//EN"
 "http://www.w3.org/TR/2001/REC-SVG-20010904/DTD/svg10.dtd">
<svg version="1.0" xmlns="http://www.w3.org/2000/svg"
 width="700.000000pt" height="700.000000pt" viewBox="0 0 700.000000 700.000000"
 preserveAspectRatio="xMidYMid meet">
<metadata>
Created by potrace 1.14, written by Peter Selinger 2001-2017
</metadata>
<g transform="translate(0.000000,700.000000) scale(0.100000,-0.100000)"
fill="#000000" stroke="none">
<path d="M1593 5304 l-643 -536 1 -751 0 -752 1255 -1045 c690 -575 1263
-1051 1273 -1058 16 -11 149 96 1289 1045 l1271 1058 0 752 1 753 -629 524
c-346 289 -638 530 -648 537 -17 10 -94 -38 -639 -401 -340 -228 -623 -413
-629 -413 -6 0 -288 185 -628 411 -339 227 -620 412 -624 412 -5 0 -297 -241
-650 -536z m1902 -338 c11 0 297 184 635 410 l616 411 624 -521 625 -521 3
-725 2 -725 -1245 -1037 c-685 -571 -1250 -1039 -1255 -1040 -6 -2 -570 463
-1255 1032 l-1244 1035 0 732 -1 733 622 518 622 519 616 -411 c338 -226 624
-410 635 -410z"/>
<path d="M1838 4912 l-427 -357 -1 -535 0 -535 942 -785 c518 -432 952 -793
965 -803 l23 -18 0 1340 0 1341 -526 351 c-289 193 -531 352 -537 354 -7 2
-204 -157 -439 -353z m955 -42 l507 -335 0 -1283 0 -1282 -920 767 -920 766 0
516 0 516 301 250 c406 338 371 312 321 238 -23 -34 -42 -66 -42 -71 0 -7 912
-609 1005 -664 9 -5 37 29 89 108 42 64 76 120 76 124 0 5 -219 151 -487 326
-269 174 -490 319 -493 321 -7 6 41 45 50 41 4 -2 235 -154 513 -338z m-121
-46 c249 -162 459 -299 467 -304 12 -6 4 -24 -39 -89 -36 -55 -58 -80 -67 -76
-20 7 -922 595 -927 604 -6 9 92 161 104 161 4 0 212 -133 462 -296z"/>
<path d="M1910 4758 l-79 -122 47 -31 c200 -135 1143 -745 1150 -745 7 0 99
134 154 226 5 8 -131 102 -420 290 -235 153 -505 329 -600 391 l-173 113 -79
-122z m656 -309 c305 -199 554 -364 554 -368 0 -14 -101 -162 -109 -159 -25
10 -1111 724 -1111 731 0 11 99 157 107 157 3 0 255 -163 559 -361z"/>
<path d="M1708 4449 l-77 -120 97 -63 c53 -34 266 -173 472 -307 206 -135 381
-248 387 -252 9 -6 37 29 88 108 41 63 75 119 75 124 0 9 -921 614 -950 625
-11 4 -38 -30 -92 -115z m566 -244 c228 -148 415 -274 416 -278 0 -4 -23 -42
-51 -83 -36 -53 -55 -74 -66 -70 -19 8 -844 544 -862 561 -11 11 -4 26 39 94
l52 82 28 -18 c15 -10 215 -139 444 -288z"/>
<path d="M4182 4915 l-532 -355 0 -1341 c0 -1296 1 -1340 18 -1327 10 7 445
368 965 802 l947 789 0 536 -1 536 -426 355 c-234 195 -429 356 -432 358 -3 1
-246 -158 -539 -353z m946 -45 l402 -335 0 -516 0 -516 -920 -766 -920 -767 0
1280 0 1280 508 339 c279 187 512 339 518 338 6 -1 191 -153 412 -337z"/>
</g>
</svg>
