<?xml version="1.0" encoding="utf-8"?>
<!-- Generator: Adobe Illustrator 26.0.3, SVG Export Plug-In . SVG Version: 6.00 Build 0)  -->
<svg version="1.1" id="Layer_1" xmlns="http://www.w3.org/2000/svg" xmlns:xlink="http://www.w3.org/1999/xlink" x="0px" y="0px"
	 viewBox="0 0 700 300" style="enable-background:new 0 0 700 300;" xml:space="preserve">
<g>
	<path d="M35.1,123.5H41v4.8h-5.9v14.1c0,1.2,0.3,2.2,0.8,2.8c0.6,0.6,1.5,0.9,2.9,0.9c0.3,0,0.7,0,1.1-0.1c0.4,0,0.7-0.1,1-0.2v4.5
		c-0.2,0.1-0.7,0.2-1.3,0.3c-0.6,0.1-1.4,0.2-2.3,0.2c-2.3,0-4.2-0.7-5.5-2c-1.4-1.3-2-3.2-2-5.7v-14.9h-5.2v-4.8h1.5
		c1.5,0,2.5-0.4,3.2-1.2c0.7-0.8,1-1.8,1-3v-4.4h4.9V123.5z"/>
	<path d="M53.3,150.7H48v-40.9h5.3v16.9c1-1.4,2.2-2.4,3.7-3c1.5-0.6,3-0.9,4.6-0.9c1.6,0,3,0.3,4.3,0.8c1.2,0.5,2.2,1.3,3,2.3
		c0.8,1,1.4,2.1,1.8,3.4c0.4,1.3,0.6,2.7,0.6,4.2v17.2H66v-16.3c0-0.9-0.1-1.8-0.3-2.7c-0.2-0.8-0.6-1.6-1.1-2.2
		c-0.5-0.6-1.2-1.1-2-1.5c-0.8-0.4-1.8-0.5-3-0.5c-1,0-1.9,0.2-2.7,0.6c-0.8,0.4-1.4,0.9-1.9,1.5c-0.5,0.6-0.9,1.4-1.2,2.3
		c-0.3,0.9-0.4,1.8-0.5,2.8V150.7z"/>
	<path d="M103.4,142.9c-0.4,1.2-0.9,2.3-1.7,3.4c-0.7,1-1.6,1.9-2.7,2.7c-1,0.8-2.2,1.4-3.5,1.8c-1.3,0.5-2.8,0.7-4.3,0.7
		c-1.8,0-3.5-0.3-5.2-1c-1.7-0.6-3.1-1.6-4.4-2.8c-1.3-1.2-2.3-2.8-3-4.6c-0.7-1.8-1.1-3.9-1.1-6.2c0-2.1,0.4-4.1,1.1-5.8
		c0.7-1.8,1.7-3.3,2.9-4.5c1.2-1.3,2.6-2.2,4.1-2.9c1.6-0.7,3.2-1,4.9-1c2.1,0,3.9,0.3,5.6,1c1.6,0.7,3,1.7,4.1,2.9
		c1.1,1.2,1.9,2.7,2.5,4.5c0.6,1.7,0.9,3.7,0.9,5.8c0,0.3,0,0.7,0,1c0,0.3,0,0.5-0.1,0.7H83c0,1.2,0.3,2.3,0.7,3.3
		c0.4,1,1,1.9,1.7,2.6c0.7,0.7,1.6,1.3,2.6,1.7c1,0.4,2.1,0.6,3.2,0.6c2.2,0,3.9-0.5,5.1-1.6c1.2-1.1,2-2.4,2.5-3.9L103.4,142.9z
		 M98,134.3c-0.1-2-0.7-3.6-2-4.9c-1.2-1.3-3.1-2-5.5-2c-1.1,0-2.1,0.2-3,0.6c-0.9,0.4-1.6,0.9-2.3,1.6c-0.6,0.7-1.1,1.4-1.5,2.2
		c-0.4,0.8-0.6,1.7-0.6,2.5H98z"/>
	<path d="M145.2,123.5l7.1,20.4l6-20.4h5.6l-8.8,27.2h-5.5l-7.2-20.7l-7.1,20.7h-5.6l-8.9-27.2h5.8l6.1,20.4l7.1-20.4H145.2z"/>
	<path d="M168,113.2c0-1.1,0.4-2,1.1-2.7c0.7-0.7,1.6-1.1,2.7-1.1c1.1,0,2,0.4,2.7,1.1c0.7,0.7,1.1,1.6,1.1,2.7
		c0,1.1-0.4,1.9-1.1,2.7c-0.7,0.7-1.6,1.1-2.7,1.1c-1.1,0-1.9-0.4-2.7-1.1C168.4,115.2,168,114.3,168,113.2z M169.2,150.7v-27.2h5.2
		v27.2H169.2z"/>
	<path d="M196.3,135l11.8,15.7h-6.7l-8.9-12l-3.8,3.8v8.2h-5.2v-40.9h5.2v25.7l11.7-12h7.3L196.3,135z"/>
	<path d="M212,113.2c0-1.1,0.4-2,1.1-2.7c0.7-0.7,1.6-1.1,2.7-1.1c1.1,0,2,0.4,2.7,1.1c0.7,0.7,1.1,1.6,1.1,2.7
		c0,1.1-0.4,1.9-1.1,2.7c-0.7,0.7-1.6,1.1-2.7,1.1c-1.1,0-1.9-0.4-2.7-1.1C212.3,115.2,212,114.3,212,113.2z M213.2,150.7v-27.2h5.2
		v27.2H213.2z"/>
	<path d="M227.4,161.4v-37.9h5.1v4.2c0.8-1.4,1.9-2.5,3.4-3.4c1.5-0.9,3.4-1.4,5.6-1.4c2,0,3.8,0.4,5.4,1.1c1.6,0.7,2.9,1.7,3.9,3
		c1,1.3,1.8,2.8,2.4,4.5c0.5,1.7,0.8,3.6,0.8,5.5c0,2-0.3,3.9-0.8,5.6c-0.6,1.7-1.4,3.2-2.5,4.5s-2.4,2.3-4,3
		c-1.6,0.7-3.3,1.1-5.3,1.1c-2.1,0-3.9-0.4-5.4-1.3c-1.5-0.9-2.6-1.9-3.4-3.1v14.4H227.4z M248.7,137.1c0-1.4-0.2-2.6-0.6-3.8
		c-0.4-1.1-0.9-2.1-1.6-3c-0.7-0.8-1.5-1.5-2.5-2c-1-0.5-2.1-0.7-3.4-0.7c-1.2,0-2.3,0.2-3.3,0.7c-1,0.5-1.9,1.2-2.6,2
		c-0.7,0.8-1.3,1.8-1.6,3c-0.4,1.1-0.6,2.4-0.6,3.8c0,1.4,0.2,2.7,0.6,3.9c0.4,1.2,0.9,2.2,1.6,3c0.7,0.8,1.6,1.5,2.6,2
		c1,0.5,2.1,0.7,3.3,0.7c1.2,0,2.4-0.2,3.3-0.7c1-0.5,1.8-1.1,2.5-2c0.7-0.8,1.2-1.9,1.6-3C248.5,139.7,248.7,138.4,248.7,137.1z"/>
	<path d="M284.6,142.9c-0.4,1.2-0.9,2.3-1.7,3.4c-0.7,1-1.6,1.9-2.7,2.7c-1,0.8-2.2,1.4-3.5,1.8c-1.3,0.5-2.8,0.7-4.3,0.7
		c-1.8,0-3.5-0.3-5.2-1c-1.7-0.6-3.1-1.6-4.4-2.8c-1.3-1.2-2.3-2.8-3-4.6c-0.7-1.8-1.1-3.9-1.1-6.2c0-2.1,0.4-4.1,1.1-5.8
		c0.7-1.8,1.7-3.3,2.9-4.5c1.2-1.3,2.6-2.2,4.1-2.9c1.6-0.7,3.2-1,4.9-1c2.1,0,3.9,0.3,5.6,1c1.6,0.7,3,1.7,4.1,2.9
		c1.1,1.2,1.9,2.7,2.5,4.5c0.6,1.7,0.9,3.7,0.9,5.8c0,0.3,0,0.7,0,1c0,0.3,0,0.5-0.1,0.7h-20.4c0,1.2,0.3,2.3,0.7,3.3
		c0.4,1,1,1.9,1.7,2.6c0.7,0.7,1.6,1.3,2.6,1.7c1,0.4,2.1,0.6,3.2,0.6c2.2,0,3.9-0.5,5.1-1.6c1.2-1.1,2-2.4,2.5-3.9L284.6,142.9z
		 M279.2,134.3c-0.1-2-0.7-3.6-2-4.9c-1.2-1.3-3.1-2-5.5-2c-1.1,0-2.1,0.2-3,0.6c-0.9,0.4-1.6,0.9-2.3,1.6c-0.6,0.7-1.1,1.4-1.5,2.2
		c-0.4,0.8-0.6,1.7-0.6,2.5H279.2z"/>
	<path d="M310.5,146.5c-0.6,1.3-1.7,2.5-3.1,3.4c-1.4,1-3.2,1.4-5.3,1.4c-2,0-3.8-0.4-5.4-1.1c-1.6-0.7-2.9-1.8-4-3
		c-1.1-1.3-2-2.8-2.6-4.6c-0.6-1.7-0.9-3.6-0.9-5.7c0-1.9,0.3-3.7,0.9-5.4c0.6-1.7,1.5-3.2,2.6-4.5c1.1-1.3,2.5-2.3,4.1-3.1
		c1.6-0.8,3.3-1.2,5.3-1.2c1.2,0,2.3,0.1,3.2,0.4c0.9,0.3,1.7,0.6,2.4,1c0.7,0.4,1.2,0.9,1.7,1.5c0.5,0.5,0.8,1.1,1,1.7v-17.6h5.2
		v35.8c0,1.3,0,2.4,0.1,3.3c0.1,0.9,0.1,1.5,0.2,1.7h-5.1c-0.1-0.3-0.1-0.8-0.2-1.4c-0.1-0.7-0.1-1.4-0.1-2.2V146.5z M294.7,137
		c0,1.4,0.2,2.7,0.5,3.9c0.4,1.2,0.9,2.2,1.6,3.1c0.7,0.9,1.5,1.5,2.5,2c1,0.5,2.1,0.7,3.4,0.7c1.2,0,2.3-0.3,3.3-0.8
		c1-0.5,1.8-1.2,2.5-2.1c0.7-0.9,1.2-1.9,1.6-3.1c0.4-1.2,0.5-2.5,0.5-3.9c0-2.8-0.7-5.1-2.1-6.8c-1.4-1.7-3.3-2.6-5.7-2.6
		c-1.2,0-2.3,0.2-3.3,0.7c-1,0.5-1.8,1.1-2.5,2c-0.7,0.8-1.2,1.9-1.6,3C294.9,134.3,294.7,135.6,294.7,137z"/>
	<path d="M323.5,113.2c0-1.1,0.4-2,1.1-2.7s1.6-1.1,2.7-1.1c1.1,0,2,0.4,2.7,1.1c0.7,0.7,1.1,1.6,1.1,2.7c0,1.1-0.4,1.9-1.1,2.7
		c-0.7,0.7-1.6,1.1-2.7,1.1c-1.1,0-1.9-0.4-2.7-1.1S323.5,114.3,323.5,113.2z M324.7,150.7v-27.2h5.2v27.2H324.7z"/>
	<path d="M337.3,143.4c0-1.2,0.2-2.3,0.6-3.2c0.4-1,1-1.8,1.7-2.5c0.7-0.7,1.6-1.2,2.6-1.6c1-0.4,2.1-0.7,3.3-0.9l7.3-1.1
		c0.8-0.1,1.4-0.4,1.7-0.7c0.3-0.4,0.4-0.8,0.4-1.3c0-1.3-0.5-2.5-1.4-3.4c-0.9-1-2.4-1.4-4.5-1.4c-1.9,0-3.3,0.5-4.3,1.6
		c-1,1-1.6,2.3-1.8,3.9l-5.1-1.2c0.2-1.3,0.5-2.5,1.2-3.6c0.6-1.1,1.4-2,2.4-2.8c1-0.8,2.1-1.4,3.4-1.8c1.3-0.4,2.7-0.6,4.1-0.6
		c2,0,3.8,0.3,5.2,0.8s2.6,1.3,3.5,2.2c0.9,0.9,1.6,2,2,3.2c0.4,1.2,0.6,2.5,0.6,3.8v13.6c0,1.2,0,2.2,0.1,2.9
		c0.1,0.7,0.2,1.2,0.2,1.6h-5.2c-0.1-0.3-0.1-0.8-0.2-1.4c-0.1-0.6-0.1-1.3-0.1-2.3c-0.3,0.5-0.7,1-1.2,1.5c-0.5,0.5-1.1,1-1.8,1.5
		c-0.7,0.5-1.6,0.8-2.5,1.1c-1,0.3-2,0.4-3.2,0.4c-1.4,0-2.6-0.2-3.8-0.7c-1.1-0.5-2.1-1-2.9-1.8c-0.8-0.7-1.4-1.6-1.8-2.6
		C337.5,145.5,337.3,144.5,337.3,143.4z M347.1,147c1.1,0,2.1-0.1,3.1-0.4c1-0.3,1.8-0.7,2.5-1.4c0.7-0.6,1.3-1.4,1.7-2.5
		c0.4-1,0.6-2.3,0.6-3.8v-1.2l-8.3,1.2c-1.1,0.2-2.1,0.6-2.8,1.3c-0.8,0.7-1.1,1.6-1.1,2.8c0,1,0.4,1.9,1.2,2.7
		C344.7,146.6,345.8,147,347.1,147z"/>
	<path d="M394.3,122.7c2,0,3.9,0.4,5.6,1.1s3.2,1.7,4.4,3c1.2,1.3,2.2,2.8,2.9,4.5c0.7,1.8,1,3.7,1,5.7c0,2.1-0.3,4-1,5.8
		c-0.7,1.8-1.6,3.3-2.9,4.6c-1.2,1.3-2.7,2.3-4.4,3c-1.7,0.7-3.6,1.1-5.6,1.1c-2,0-3.9-0.4-5.6-1.1c-1.7-0.7-3.2-1.7-4.4-3
		c-1.2-1.3-2.2-2.8-2.9-4.6c-0.7-1.8-1-3.7-1-5.8c0-2.1,0.3-4,1-5.7c0.7-1.7,1.6-3.3,2.9-4.5c1.2-1.3,2.7-2.3,4.4-3
		S392.2,122.7,394.3,122.7z M394.3,146.8c1.1,0,2.2-0.2,3.2-0.6c1-0.4,1.9-1,2.7-1.9c0.8-0.8,1.4-1.8,1.9-3c0.5-1.2,0.7-2.6,0.7-4.2
		c0-1.6-0.2-3-0.7-4.1c-0.5-1.2-1.1-2.2-1.9-3c-0.8-0.8-1.7-1.4-2.7-1.9c-1-0.4-2.1-0.6-3.2-0.6c-1.1,0-2.2,0.2-3.2,0.6
		c-1,0.4-1.9,1-2.7,1.9c-0.8,0.8-1.4,1.8-1.9,3c-0.5,1.2-0.7,2.6-0.7,4.1c0,1.6,0.2,3,0.7,4.2c0.5,1.2,1.1,2.2,1.9,3
		c0.8,0.8,1.7,1.4,2.7,1.9C392.1,146.6,393.1,146.8,394.3,146.8z"/>
	<path d="M422,128.3v22.4h-5.5v-22.4h-5v-4.8h5v-4.6c0-1.5,0.2-2.8,0.7-4c0.5-1.2,1.1-2.1,1.9-2.9c0.8-0.8,1.8-1.4,2.8-1.8
		c1.1-0.4,2.2-0.6,3.5-0.6c0.9,0,1.6,0.1,2.2,0.2c0.5,0.2,0.9,0.3,1,0.3v4.7c-0.2-0.1-0.4-0.2-0.8-0.2c-0.4-0.1-0.9-0.1-1.6-0.1
		c-0.5,0-0.9,0.1-1.4,0.2c-0.5,0.1-1,0.4-1.4,0.7c-0.4,0.3-0.8,0.8-1,1.4c-0.3,0.6-0.4,1.4-0.4,2.3v4.3h6.5v4.8H422z"/>
	<path d="M448.4,150.7v-27.2h5.1v3.6c0.9-1.5,2.1-2.6,3.6-3.3c1.5-0.7,3.1-1.1,4.7-1.1c1.7,0,3.3,0.4,4.8,1.2
		c1.5,0.8,2.6,2.1,3.4,3.9c1.1-2,2.4-3.3,4.1-4s3.3-1.1,5-1.1c1.2,0,2.3,0.2,3.4,0.6c1.1,0.4,2.1,1,3,1.9c0.9,0.8,1.6,1.9,2.1,3.2
		c0.5,1.3,0.8,2.8,0.8,4.6v17.6h-5.2v-17c0-1.8-0.5-3.2-1.4-4.4c-0.9-1.2-2.4-1.8-4.4-1.8c-1.9,0-3.4,0.6-4.5,1.9
		c-1.1,1.3-1.7,2.9-1.7,4.9v16.4h-5.3v-17c0-1.8-0.5-3.2-1.4-4.4c-0.9-1.2-2.4-1.8-4.4-1.8c-1.9,0-3.5,0.6-4.6,1.9
		c-1.1,1.3-1.7,2.9-1.7,5v16.4H448.4z"/>
	<path d="M520.4,142.9c-0.4,1.2-0.9,2.3-1.7,3.4c-0.7,1-1.6,1.9-2.7,2.7c-1,0.8-2.2,1.4-3.5,1.8c-1.3,0.5-2.8,0.7-4.3,0.7
		c-1.8,0-3.5-0.3-5.2-1c-1.7-0.6-3.1-1.6-4.4-2.8c-1.3-1.2-2.3-2.8-3-4.6c-0.7-1.8-1.1-3.9-1.1-6.2c0-2.1,0.4-4.1,1.1-5.8
		c0.7-1.8,1.7-3.3,2.9-4.5c1.2-1.3,2.6-2.2,4.1-2.9c1.6-0.7,3.2-1,4.9-1c2.1,0,3.9,0.3,5.6,1c1.6,0.7,3,1.7,4.1,2.9
		c1.1,1.2,1.9,2.7,2.5,4.5c0.6,1.7,0.9,3.7,0.9,5.8c0,0.3,0,0.7,0,1c0,0.3,0,0.5-0.1,0.7H500c0,1.2,0.3,2.3,0.7,3.3
		c0.4,1,1,1.9,1.7,2.6c0.7,0.7,1.6,1.3,2.6,1.7c1,0.4,2.1,0.6,3.2,0.6c2.2,0,3.9-0.5,5.1-1.6c1.2-1.1,2-2.4,2.5-3.9L520.4,142.9z
		 M515.1,134.3c-0.1-2-0.7-3.6-2-4.9c-1.2-1.3-3.1-2-5.5-2c-1.1,0-2.1,0.2-3,0.6c-0.9,0.4-1.6,0.9-2.3,1.6c-0.6,0.7-1.1,1.4-1.5,2.2
		c-0.4,0.8-0.6,1.7-0.6,2.5H515.1z"/>
	<path d="M546.4,146.5c-0.6,1.3-1.7,2.5-3.1,3.4c-1.4,1-3.2,1.4-5.3,1.4c-2,0-3.8-0.4-5.4-1.1c-1.6-0.7-2.9-1.8-4-3
		c-1.1-1.3-2-2.8-2.6-4.6c-0.6-1.7-0.9-3.6-0.9-5.7c0-1.9,0.3-3.7,0.9-5.4c0.6-1.7,1.5-3.2,2.6-4.5c1.1-1.3,2.5-2.3,4.1-3.1
		c1.6-0.8,3.3-1.2,5.3-1.2c1.2,0,2.3,0.1,3.2,0.4c0.9,0.3,1.7,0.6,2.4,1c0.7,0.4,1.2,0.9,1.7,1.5c0.5,0.5,0.8,1.1,1,1.7v-17.6h5.2
		v35.8c0,1.3,0,2.4,0.1,3.3c0.1,0.9,0.1,1.5,0.2,1.7h-5.1c-0.1-0.3-0.1-0.8-0.2-1.4c-0.1-0.7-0.1-1.4-0.1-2.2V146.5z M530.5,137
		c0,1.4,0.2,2.7,0.5,3.9c0.4,1.2,0.9,2.2,1.6,3.1c0.7,0.9,1.5,1.5,2.5,2c1,0.5,2.1,0.7,3.4,0.7c1.2,0,2.3-0.3,3.3-0.8
		c1-0.5,1.8-1.2,2.5-2.1c0.7-0.9,1.2-1.9,1.6-3.1c0.4-1.2,0.5-2.5,0.5-3.9c0-2.8-0.7-5.1-2.1-6.8c-1.4-1.7-3.3-2.6-5.7-2.6
		c-1.2,0-2.3,0.2-3.3,0.7c-1,0.5-1.8,1.1-2.5,2c-0.7,0.8-1.2,1.9-1.6,3C530.7,134.3,530.5,135.6,530.5,137z"/>
	<path d="M559.4,113.2c0-1.1,0.4-2,1.1-2.7c0.7-0.7,1.6-1.1,2.7-1.1c1.1,0,2,0.4,2.7,1.1c0.7,0.7,1.1,1.6,1.1,2.7
		c0,1.1-0.4,1.9-1.1,2.7c-0.7,0.7-1.6,1.1-2.7,1.1c-1.1,0-1.9-0.4-2.7-1.1C559.7,115.2,559.4,114.3,559.4,113.2z M560.6,150.7v-27.2
		h5.2v27.2H560.6z"/>
	<path d="M586.3,127.6c-1.1,0-2.1,0.2-3.1,0.6c-1,0.4-1.9,1-2.6,1.8c-0.8,0.8-1.4,1.8-1.8,3c-0.5,1.2-0.7,2.6-0.7,4.1
		c0,1.5,0.2,2.9,0.7,4.1c0.5,1.2,1.1,2.2,1.8,3c0.8,0.8,1.6,1.4,2.7,1.8c1,0.4,2.1,0.6,3.2,0.6c1.3,0,2.4-0.2,3.2-0.6
		c0.9-0.4,1.6-0.8,2.2-1.4c0.6-0.6,1-1.2,1.4-1.8c0.3-0.7,0.6-1.3,0.7-1.8l4.7,2c-0.3,1-0.8,2-1.5,3c-0.6,1-1.5,1.9-2.5,2.7
		c-1,0.8-2.2,1.5-3.6,2c-1.4,0.5-2.9,0.8-4.7,0.8c-2,0-3.8-0.4-5.5-1.1c-1.7-0.7-3.1-1.7-4.3-3c-1.2-1.3-2.2-2.8-2.9-4.6
		c-0.7-1.7-1-3.7-1-5.7c0-2.1,0.3-4,1-5.8c0.7-1.8,1.7-3.3,2.9-4.5c1.2-1.3,2.7-2.2,4.3-3c1.7-0.7,3.5-1.1,5.4-1.1
		c1.8,0,3.4,0.3,4.8,0.8c1.4,0.5,2.6,1.2,3.6,2c1,0.8,1.8,1.8,2.4,2.8c0.6,1,1.1,2.1,1.4,3.1l-4.8,2c-0.2-0.7-0.5-1.4-0.8-2
		c-0.3-0.7-0.8-1.3-1.4-1.8c-0.6-0.5-1.3-1-2.1-1.4C588.4,127.8,587.4,127.6,586.3,127.6z"/>
	<path d="M603.6,113.2c0-1.1,0.4-2,1.1-2.7c0.7-0.7,1.6-1.1,2.7-1.1c1.1,0,2,0.4,2.7,1.1c0.7,0.7,1.1,1.6,1.1,2.7
		c0,1.1-0.4,1.9-1.1,2.7c-0.7,0.7-1.6,1.1-2.7,1.1c-1.1,0-1.9-0.4-2.7-1.1C603.9,115.2,603.6,114.3,603.6,113.2z M604.8,150.7v-27.2
		h5.2v27.2H604.8z"/>
	<path d="M624.4,150.7H619v-27.2h5.2v3.9c1-1.7,2.2-2.9,3.7-3.6c1.5-0.7,3-1.1,4.6-1.1c1.6,0,3,0.3,4.3,0.8c1.2,0.5,2.2,1.3,3,2.3
		c0.8,1,1.4,2.1,1.8,3.4c0.4,1.3,0.6,2.7,0.6,4.2v17.2H637v-16.3c0-0.9-0.1-1.8-0.3-2.7c-0.2-0.8-0.6-1.6-1.1-2.2
		c-0.5-0.6-1.2-1.1-2-1.5c-0.8-0.4-1.8-0.5-3-0.5c-1.1,0-2,0.2-2.8,0.6c-0.8,0.4-1.4,0.9-2,1.6c-0.5,0.7-0.9,1.5-1.2,2.4
		c-0.3,0.9-0.4,1.9-0.4,2.9V150.7z"/>
	<path d="M674.4,142.9c-0.4,1.2-0.9,2.3-1.7,3.4c-0.7,1-1.6,1.9-2.7,2.7c-1,0.8-2.2,1.4-3.5,1.8c-1.3,0.5-2.8,0.7-4.3,0.7
		c-1.8,0-3.5-0.3-5.2-1s-3.1-1.6-4.4-2.8c-1.3-1.2-2.3-2.8-3-4.6c-0.7-1.8-1.1-3.9-1.1-6.2c0-2.1,0.4-4.1,1.1-5.8
		c0.7-1.8,1.7-3.3,2.9-4.5c1.2-1.3,2.6-2.2,4.1-2.9c1.6-0.7,3.2-1,4.9-1c2.1,0,3.9,0.3,5.6,1c1.6,0.7,3,1.7,4.1,2.9
		c1.1,1.2,1.9,2.7,2.5,4.5c0.6,1.7,0.9,3.7,0.9,5.8c0,0.3,0,0.7,0,1c0,0.3,0,0.5-0.1,0.7h-20.4c0,1.2,0.3,2.3,0.7,3.3
		c0.4,1,1,1.9,1.7,2.6c0.7,0.7,1.6,1.3,2.6,1.7c1,0.4,2.1,0.6,3.2,0.6c2.2,0,3.9-0.5,5.1-1.6c1.2-1.1,2-2.4,2.5-3.9L674.4,142.9z
		 M669.1,134.3c-0.1-2-0.7-3.6-2-4.9c-1.2-1.3-3.1-2-5.5-2c-1.1,0-2.1,0.2-3,0.6c-0.9,0.4-1.6,0.9-2.3,1.6c-0.6,0.7-1.1,1.4-1.5,2.2
		c-0.4,0.8-0.6,1.7-0.6,2.5H669.1z"/>
</g>
<g>
	<g>
		<path d="M41.6,191.2c76.5-17.5,155.1-20.5,233.3-18.8c78.6,1.7,157.1,7.9,235.8,8.7c44.2,0.4,88.5-0.9,132.5-5.6
			c5.1-0.5,5.1-8.6,0-8c-78.8,8.5-158.2,5.9-237.2,2.3c-78.6-3.6-157.3-8.3-236-3.9c-43.9,2.5-87.7,7.9-130.6,17.7
			C34.4,184.7,36.6,192.4,41.6,191.2L41.6,191.2z"/>
	</g>
</g>
</svg>
